<svg width="64" height="64" viewBox="0 0 64 64" fill="none" xmlns="http://www.w3.org/2000/svg">
<rect width="64" height="64" rx="32" fill="#CBEFE2"/>
<g clip-path="url(#clip0_27_641)">
<path d="M47.1188 24.8812L44.2375 27.7625C43.9438 28.0562 43.4688 28.0562 43.175 27.7625L36.2375 20.825C35.9438 20.5312 35.9438 20.0562 36.2375 19.7625L39.1188 16.8812C40.2875 15.7125 42.1875 15.7125 43.3625 16.8812L47.1188 20.6375C48.2938 21.8062 48.2938 23.7062 47.1188 24.8812ZM33.7625 22.2375L17.35 38.65L16.025 46.2437C15.8438 47.2687 16.7375 48.1562 17.7625 47.9812L25.3563 46.65L41.7688 30.2375C42.0625 29.9437 42.0625 29.4687 41.7688 29.175L34.8313 22.2375C34.5313 21.9437 34.0563 21.9437 33.7625 22.2375ZM23.7563 37.2437C23.4125 36.9 23.4125 36.35 23.7563 36.0062L33.3813 26.3812C33.725 26.0375 34.275 26.0375 34.6188 26.3812C34.9625 26.725 34.9625 27.275 34.6188 27.6187L24.9938 37.2437C24.65 37.5875 24.1 37.5875 23.7563 37.2437ZM21.5 42.5H24.5V44.7687L20.4688 45.475L18.525 43.5312L19.2313 39.5H21.5V42.5Z" fill="#37B888"/>
</g>
<defs>
<clipPath id="clip0_27_641">
<rect width="32" height="32" fill="white" transform="translate(16 16)"/>
</clipPath>
</defs>
</svg>
