<svg width="64" height="64" viewBox="0 0 64 64" fill="none" xmlns="http://www.w3.org/2000/svg">
<rect width="64" height="64" rx="32" fill="#FBF6DA"/>
<path d="M28 36V43.856C22.938 43.098 20 39.504 20 36V35C20 34.2044 20.3161 33.4413 20.8787 32.8787C21.4413 32.3161 22.2044 32 23 32H29.528C28.5422 33.0989 27.998 34.5237 28 36ZM30 19C31.4587 19 32.8576 19.5795 33.8891 20.6109C34.9205 21.6424 35.5 23.0413 35.5 24.5C35.5 25.9587 34.9205 27.3576 33.8891 28.3891C32.8576 29.4205 31.4587 30 30 30C28.5413 30 27.1424 29.4205 26.1109 28.3891C25.0795 27.3576 24.5 25.9587 24.5 24.5C24.5 23.0413 25.0795 21.6424 26.1109 20.6109C27.1424 19.5795 28.5413 19 30 19ZM34 32C32.9391 32 31.9217 32.4214 31.1716 33.1716C30.4214 33.9217 30 34.9391 30 36V44C30 45.0609 30.4214 46.0783 31.1716 46.8284C31.9217 47.5786 32.9391 48 34 48H44C45.0609 48 46.0783 47.5786 46.8284 46.8284C47.5786 46.0783 48 45.0609 48 44V36C48 34.9391 47.5786 33.9217 46.8284 33.1716C46.0783 32.4214 45.0609 32 44 32H34ZM35 42H43C43.2652 42 43.5196 42.1054 43.7071 42.2929C43.8946 42.4804 44 42.7348 44 43C44 43.2652 43.8946 43.5196 43.7071 43.7071C43.5196 43.8946 43.2652 44 43 44H35C34.7348 44 34.4804 43.8946 34.2929 43.7071C34.1054 43.5196 34 43.2652 34 43C34 42.7348 34.1054 42.4804 34.2929 42.2929C34.4804 42.1054 34.7348 42 35 42ZM34 37C34 36.7348 34.1054 36.4804 34.2929 36.2929C34.4804 36.1054 34.7348 36 35 36H43C43.2652 36 43.5196 36.1054 43.7071 36.2929C43.8946 36.4804 44 36.7348 44 37C44 37.2652 43.8946 37.5196 43.7071 37.7071C43.5196 37.8946 43.2652 38 43 38H35C34.7348 38 34.4804 37.8946 34.2929 37.7071C34.1054 37.5196 34 37.2652 34 37Z" fill="#EFDA6C"/>
</svg>
